Coordinates
version=1
nRows=27
nColumns=38
inDegrees=no

Units are S.I. units (second, meters, Newtons, ...)
If the header above contains a line with 'inDegrees', this indicates whether rotational values are in degrees (yes) or radians (no).

endheader
time	pelvis_tilt	pelvis_list	pelvis_rotation	pelvis_tx	pelvis_ty	pelvis_tz	hip_flexion_r	hip_adduction_r	hip_rotation_r	knee_angle_r	ankle_angle_r	subtalar_angle_r	mtp_angle_r	hip_flexion_l	hip_adduction_l	hip_rotation_l	knee_angle_l	ankle_angle_l	subtalar_angle_l	mtp_angle_l	lumbar_extension	lumbar_bending	lumbar_rotation	arm_flex_r	arm_add_r	arm_rot_r	elbow_flex_r	pro_sup_r	wrist_flex_r	wrist_dev_r	arm_flex_l	arm_add_l	arm_rot_l	elbow_flex_l	pro_sup_l	wrist_flex_l	wrist_dev_l
0	0.681654	1.47518	-2.16776	0.694168	1.88633	0.934769	-0.141118	-0.0591049	-0.203012	0.0520925	0.0721887	0	0	-0.105013	0.0577515	-0.109869	0.0451111	0.0469302	0	0	-0.171055	-0.0229455	-0.0962125	0.102285	-0.301116	0.314197	0.883799	1.50805	0	0	0.0315684	-0.260989	0.38226	0.541083	1.5708	0	0
0.01	0.660985	1.47393	-2.15068	0.693237	1.88595	0.934991	-0.142663	-0.0573201	-0.199384	0.0529316	0.0724094	0	0	-0.104628	0.0558409	-0.128431	0.0510631	0.0516524	0	0	-0.173973	-0.0245035	-0.0948898	0.109859	-0.29441	0.328458	0.868052	1.50851	0	0	0.0341027	-0.265486	0.38052	0.553993	1.5708	0	0
0.02	0.667733	1.47439	-2.15796	0.694	1.88575	0.934736	-0.140848	-0.0593016	-0.199979	0.0557321	0.0748673	0	0	-0.101838	0.0565226	-0.116484	0.0567482	0.0558449	0	0	-0.173897	-0.023911	-0.0966908	0.115821	-0.293096	0.344537	0.857561	1.50954	0	0	0.0372116	-0.265677	0.37733	0.561401	1.5708	0	0
0.03	0.489418	1.48111	-1.97521	0.694843	1.88589	0.934174	-0.144296	-0.0392648	-0.201559	0.0535728	0.0710982	0	0	-0.0963155	0.0356114	-0.118993	0.0730289	0.0741569	0	0	-0.177682	-0.00298215	-0.100819	0.122554	-0.296544	0.365632	0.852135	1.5044	0	0	0.0414721	-0.264295	0.372993	0.569465	1.5708	0	0
0.04	0.478914	1.48009	-1.9665	0.694781	1.88554	0.934168	-0.145896	-0.0390386	-0.200586	0.0536677	0.0719976	0	0	-0.095019	0.0347692	-0.122458	0.0798679	0.0795309	0	0	-0.179978	-0.00326874	-0.101498	0.128902	-0.29307	0.383471	0.837238	1.50075	0	0	0.0440121	-0.266974	0.370855	0.577866	1.57031	0	0
0.05	0.469328	1.4792	-1.9588	0.694781	1.88516	0.934152	-0.147616	-0.0387923	-0.200202	0.0530497	0.0725302	0	0	-0.0937437	0.0341222	-0.12544	0.086458	0.0846363	0	0	-0.18203	-0.0035966	-0.101717	0.134713	-0.289616	0.401831	0.82183	1.49664	0	0	0.0462751	-0.270235	0.372045	0.589604	1.55884	0	0
0.06	0.438889	1.47801	-1.9315	0.693983	1.88466	0.934281	-0.151412	-0.0353873	-0.197021	0.0499809	0.071275	0	0	-0.0931064	0.0309013	-0.143087	0.0935993	0.0908268	0	0	-0.185034	-0.00369809	-0.100212	0.140193	-0.283833	0.419931	0.804611	1.48945	0	0	0.0485939	-0.274593	0.371479	0.600318	1.5523	0	0
0.07	0.445187	1.47816	-1.93834	0.694918	1.88435	0.934066	-0.151967	-0.0375074	-0.198265	0.0492753	0.0724944	0	0	-0.0911035	0.0325925	-0.129729	0.0987242	0.0943988	0	0	-0.185309	-0.0034545	-0.101274	0.145136	-0.282787	0.43965	0.790468	1.48482	0	0	0.0521156	-0.273992	0.368576	0.605709	1.55201	0	0
0.08	0.692075	1.45122	-2.18558	0.693721	1.8853	0.936922	-0.163633	-0.07604	-0.203048	0.0499053	0.0761214	0	0	-0.0845509	0.0627435	-0.208831	0.131694	0.0950174	0	0	-0.203527	-0.048524	-0.106855	0.156182	-0.262587	0.45477	0.753537	1.4722	0	0	0.0779578	-0.292135	0.362149	0.62138	1.5708	0	0
0.09	0.421086	1.47775	-1.91703	0.695319	1.88349	0.93391	-0.156788	-0.0360988	-0.195816	0.0440184	0.0720301	0	0	-0.0869457	0.0306766	-0.13552	0.112971	0.106326	0	0	-0.187949	-0.00313866	-0.100653	0.154328	-0.275976	0.477579	0.752744	1.46911	0	0	0.0583824	-0.278647	0.372309	0.619858	1.52645	0	0
0.1	0.407619	1.47761	-1.90561	0.69541	1.88297	0.933831	-0.159157	-0.0351308	-0.194256	0.0412912	0.0718306	0	0	-0.0855019	0.0295896	-0.137561	0.11913	0.112044	0	0	-0.188969	-0.00321996	-0.0993884	0.158234	-0.271725	0.496063	0.732911	1.46153	0	0	0.0616571	-0.280111	0.371978	0.623879	1.52225	0	0
0.11	0.375657	1.47687	-1.87735	0.694719	1.88229	0.933936	-0.163022	-0.0314424	-0.190638	0.0373897	0.070443	0	0	-0.0860918	0.0262985	-0.151429	0.123354	0.117249	0	0	-0.191154	-0.00326681	-0.0962341	0.161781	-0.265415	0.51376	0.711847	1.45319	0	0	0.0641187	-0.28354	0.372479	0.629017	1.51745	0	0
0.12	0.358212	1.48077	-1.86022	0.695335	1.88187	0.933373	-0.160856	-0.029358	-0.190682	0.0359981	0.0715433	0	0	-0.0646826	0.0169454	-0.181057	0.164051	0.142337	0	0	-0.188248	-0.000772733	-0.0968405	0.165695	-0.263243	0.538094	0.694153	1.43842	0	0	0.0652094	-0.284984	0.373626	0.637314	1.50721	0	0
0.13	0.51297	1.4749	-2.0238	0.694579	1.88072	0.933972	-0.162137	-0.0479014	-0.185453	0.0352857	0.0756323	0	0	-0.0690181	0.0356487	-0.18412	0.158171	0.133582	0	0	-0.188285	-0.0213037	-0.0907501	0.166231	-0.252961	0.549742	0.670775	1.43662	0	0	0.0658626	-0.289242	0.372951	0.642457	1.50515	0	0
0.14	0.344136	1.48408	-1.85023	0.696555	1.88064	0.932846	-0.160596	-0.029748	-0.188465	0.0332912	0.0734406	0	0	-0.0538589	0.0146078	-0.180431	0.185106	0.155621	0	0	-0.18644	0.000633326	-0.0943266	0.170411	-0.258883	0.581125	0.661677	1.41695	0	0	0.0675015	-0.285745	0.373977	0.647839	1.49835	0	0
0.15	0.316161	1.48611	-1.82646	0.695941	1.87974	0.932799	-0.160832	-0.0262529	-0.183575	0.0307787	0.0724431	0	0	-0.0511862	0.0107259	-0.194003	0.190032	0.159717	0	0	-0.186323	-0.00118693	-0.0869639	0.176446	-0.224376	0.267456	0.626604	0.270134	0	0	0.0709076	-0.289976	0.383912	0.653432	1.48455	0	0
0.16	0.311092	1.48644	-1.82304	0.697108	1.87912	0.932551	-0.161502	-0.0279711	-0.183397	0.0307382	0.0741948	0	0	-0.048447	0.0111736	-0.186111	0.198126	0.165278	0	0	-0.185879	0.00177085	-0.0901991	0.174998	-0.253352	0.635977	0.624572	1.43173	0	0	0.0685767	-0.283687	0.359855	0.650062	1.52588	0	0
0.17	0.296065	1.48545	-1.81103	0.697575	1.87821	0.932623	-0.164761	-0.028072	-0.180733	0.0285969	0.0736884	0	0	-0.0526294	0.0121974	-0.180223	0.194564	0.16424	0	0	-0.187838	0.00167393	-0.0879827	0.176801	-0.250044	0.656218	0.608626	1.42195	0	0	0.0677543	-0.281768	0.347652	0.651668	1.55204	0	0
0.18	0.266248	1.4793	-1.78573	0.696675	1.87732	0.933097	-0.173619	-0.0259606	-0.178141	0.0258371	0.0729188	0	0	-0.0718968	0.0167628	-0.166987	0.169998	0.153509	0	0	-0.196456	-0.00238302	-0.0826074	0.176523	-0.242666	0.665617	0.594525	1.41957	0	0	0.0869846	-0.290385	0.335607	0.662828	1.5708	0	0
0.19	0.250747	1.4904	-1.76996	0.698627	1.8766	0.931989	-0.161914	-0.025055	-0.179833	0.0285066	0.0746528	0	0	-0.0408537	0.00654376	-0.190067	0.215898	0.179106	0	0	-0.185049	0.00376801	-0.0827718	0.175531	-0.243891	0.683423	0.583582	1.41439	0	0	0.0688051	-0.289944	0.38611	0.661737	1.43915	0	0
0.2	0.31784	1.47848	-1.84447	0.698341	1.87549	0.933712	-0.175177	-0.0354788	-0.175865	0.0253015	0.0735493	0	0	-0.0461026	0.014117	-0.197762	0.232753	0.181272	0	0	-0.197608	-0.00889344	-0.0767021	0.176337	-0.237119	0.697787	0.56833	1.40439	0	0	0.0702655	-0.29278	0.389897	0.662296	1.42099	0	0
0.21	0.13461	1.49559	-1.65826	0.699814	1.87458	0.930606	-0.161521	-0.016463	-0.17621	0.0252158	0.0766182	0	0	-0.0355094	-0.000424737	-0.186773	0.220666	0.186056	0	0	-0.181737	0.010264	-0.0769087	0.171657	-0.24192	0.712788	0.568798	1.41155	0	0	0.0838659	-0.286242	0.338253	0.663588	1.5708	0	0
0.22	0.18467	1.49347	-1.71378	0.700272	1.87338	0.931473	-0.164628	-0.0226366	-0.174152	0.0242887	0.075809	0	0	-0.0377478	0.00256132	-0.199065	0.22801	0.189799	0	0	-0.184311	0.00471732	-0.0727869	0.170481	-0.237392	0.723435	0.555152	1.41338	0	0	0.063935	-0.289061	0.385607	0.663706	1.41367	0	0
0.23	0.16791	1.49362	-1.6992	0.701085	1.87227	0.931385	-0.166298	-0.0225295	-0.174174	0.0232814	0.0763652	0	0	-0.0388562	0.0026308	-0.198461	0.228987	0.191369	0	0	-0.18507	0.00449422	-0.0706532	0.167986	-0.235848	0.733128	0.548225	1.41224	0	0	0.0613061	-0.288651	0.383691	0.663574	1.40883	0	0
0.24	0.155072	1.49393	-1.68919	0.701903	1.87111	0.931288	-0.16732	-0.0230064	-0.173555	0.0231033	0.0773929	0	0	-0.0402292	0.00306865	-0.198986	0.229321	0.192731	0	0	-0.185568	0.00389037	-0.0680511	0.164443	-0.233583	0.733283	0.542523	1.41705	0	0	0.0581058	-0.285234	0.369822	0.658956	1.44014	0	0
0.25	0.104879	1.49723	-1.64076	0.702824	1.86987	0.93066	-0.165073	-0.0200724	-0.173342	0.0239152	0.0791853	0	0	-0.03599	-0.00067283	-0.201595	0.235589	0.198314	0	0	-0.182673	0.00656607	-0.0660922	0.159979	-0.232659	0.732978	0.539956	1.4124	0	0	0.0537824	-0.284978	0.370821	0.66073	1.43424	0	0
0.26	0.166444	1.47875	-1.73162	0.700309	1.87014	0.933952	-0.175617	-0.032423	-0.145729	0.0328198	0.0777008	0	0	-0.0703096	0.0154026	-0.204826	0.206194	0.17437	0	0	-0.209752	-0.00535235	-0.0440427	0.169591	-0.227235	0.751067	0.526316	1.41416	0	0	0.0888109	-0.230231	-0.0464496	0.595239	0.344153	0	0
